#!OML:ASF I:\Actors\actors\Patient Classification 2\Patient 1\Session 1\actor1.ASF
:FULLY-SPECIFIED
:DEGREES
109
root -0.730474 18.694 5.84138 2.0021 0.288992 -4.62909
lowerback 4.30879 0.874596 2.7499
upperback -2.15895 1.37417 0.766329
thorax -4.60499 0.610249 -0.86194
lowerneck -9.54241 -3.84663 -4.99963
upperneck 10.3729 -5.28072 6.62077
head 4.98907 -2.37396 2.48854
rclavicle -1.68594e-014 -1.37161e-014
rhumerus -59.0049 14.6063 -94.2156
rradius 73.8206
rwrist 9.74348
rhand -21.8076 -27.4827
rfingers 7.12502
rthumb 4.59453 -57.4129
lclavicle -1.68594e-014 -1.37161e-014
lhumerus -46.6546 -6.86798 90.6389
lradius 46.3274
lwrist -2.67575
lhand -2.17347 -22.677
lfingers 7.12502
lthumb 23.507 5.90672
rfemur 0 0 0
rtibia 0
rfoot 0 0
rtoes 0
lfemur -6.25438 -6.46066 -9.01048
ltibia 23.2316
lfoot -22.8287 11.7436
ltoes -55.9633
110
root -0.752225 18.6903 5.84885 1.9234 0.824589 -4.66209
lowerback 4.41374 0.741042 2.49869
upperback -2.09842 1.1835 0.793524
thorax -4.61303 0.524107 -0.679041
lowerneck -9.4633 -3.97409 -4.98996
upperneck 9.80785 -5.43341 6.66671
head 4.81211 -2.45306 2.49218
rclavicle 8.4763e-015 2.82274e-014
rhumerus -58.2756 15.8539 -93.4739
rradius 79.0176
rwrist 9.11198
rhand -24.3855 -26.8438
rfingers 7.12502
rthumb 2.10508 -56.8132
lclavicle 8.4763e-015 2.82274e-014
lhumerus -47.3798 -7.01702 90.4175
lradius 47.3925
lwrist -1.89536
lhand -1.9905 -22.4689
lfingers 7.12502
lthumb 23.6825 6.0922
rfemur 0 0 0
rtibia 0
rfoot 0 0
rtoes 0
lfemur -6.32926 -6.20434 -8.78343
ltibia 23.2767
lfoot -22.5264 11.0604
ltoes -56.0916
111
root -0.756936 18.6923 5.84796 2.0218 1.09582 -4.69376
lowerback 4.41818 0.669062 2.45685
upperback -2.09247 1.08464 0.791027
thorax -4.61287 0.476349 -0.650105
lowerneck -9.53031 -4.0106 -5.02332
upperneck 9.48201 -5.47155 6.7802
head 4.72976 -2.46833 2.52986
rclavicle 9.16894e-015 2.38542e-015
rhumerus -56.7437 17.1763 -92.2176
rradius 84.2016
rwrist 9.48316
rhand -26.1909 -27.0005
rfingers 7.12502
rthumb 0.361374 -56.98
lclavicle 9.16894e-015 2.38542e-015
lhumerus -48.0931 -7.09137 90.1972
lradius 48.3984
lwrist -1.35235
lhand -1.83647 -22.3003
lfingers 7.12502
lthumb 23.8302 6.24158
rfemur 0 0 0
rtibia 0
rfoot 0 0
rtoes 0
lfemur -6.60491 -6.04432 -8.65477
ltibia 23.4194
lfoot -22.3764 10.7165
ltoes -56.1742
112
root -0.743741 18.6944 5.84 2.12016 1.20739 -4.86804
lowerback 4.48895 0.604094 2.81961
upperback -2.09044 1.02264 0.771023
thorax -4.64704 0.433756 -0.869789
lowerneck -9.65139 -3.99091 -5.06411
upperneck 9.22932 -5.43879 6.93479
head 4.67607 -2.44489 2.58584
rclavicle -2.10044e-016 -3.97569e-016
rhumerus -54.2634 18.4306 -90.3455
rradius 89.6518
rwrist 10.1248
rhand -25.7331 -27.8638
rfingers 7.12502
rthumb 0.803572 -57.8421
lclavicle -2.10044e-016 -3.97569e-016
lhumerus -48.7156 -7.0703 89.909
lradius 49.2945
lwrist -0.935427
lhand -2.04147 -22.6067
lfingers 7.12502
lthumb 23.6336 5.96067
rfemur 0 0 0
rtibia 0
rfoot 0 0
rtoes 0
lfemur -6.8474 -5.93051 -8.46157
ltibia 23.5691
lfoot -22.3116 10.5751
ltoes -56.2843
113
root -0.716131 18.6912 5.82407 2.03936 1.11257 -5.43303
lowerback 4.89175 0.565307 3.8313
upperback -2.10246 1.05707 0.791558
thorax -4.87329 0.415753 -1.42364
lowerneck -9.67198 -4.01643 -5.24642
upperneck 8.97633 -5.47086 7.26563
head 4.61857 -2.45007 2.71619
rclavicle 7.40356e-015 -9.93923e-015
rhumerus -51.0437 19.8313 -88.2661
rradius 94.6597
rwrist 9.6519
rhand -26.3787 -27.9414
rfingers 7.12502
rthumb 0.179951 -57.9211
lclavicle 7.40356e-015 -9.93923e-015
lhumerus -49.2159 -6.82756 89.3687
lradius 49.9453
lwrist 0.0902923
lhand -2.02748 -24.1871
lfingers 7.12502
lthumb 23.647 4.37863
rfemur 0 0 0
rtibia 0
rfoot 0 0
rtoes 0
lfemur -6.84097 -5.81093 -7.92381
ltibia 23.7474
lfoot -22.3898 10.5454
ltoes -56.3421
114
root -0.704589 18.6954 5.80956 2.20902 0.54155 -5.53588
lowerback 5.08725 0.717942 4.07297
upperback -2.21434 1.28821 0.726249
thorax -5.08392 0.515682 -1.65143
lowerneck -9.57953 -4.06324 -5.37976
upperneck 8.68998 -5.53471 7.54767
head 4.53167 -2.47514 2.8229
rclavicle 5.59392e-015 -9.54166e-015
rhumerus -46.914 21.1381 -85.6561
rradius 99.2203
rwrist 9.2607
rhand -25.695 -29.1582
rfingers 7.12502
rthumb 0.840348 -59.1363
lclavicle 5.59392e-015 -9.54166e-015
lhumerus -49.7589 -6.82662 89.0704
lradius 50.5089
lwrist 0.498994
lhand -0.254886 -22.9293
lfingers 7.12502
lthumb 25.3462 5.40632
rfemur 0 0 0
rtibia 0
rfoot 0 0
rtoes 0
lfemur -6.9463 -5.81562 -7.90824
ltibia 23.8621
lfoot -22.6765 11.0144
ltoes -56.2697
